<svg width="160" height="160" viewBox="0 0 160 160" fill="none" xmlns="http://www.w3.org/2000/svg" role="img" aria-label="awesome-legal-ai-zh logo">
  <defs>
    <linearGradient id="g" x1="0" y1="0" x2="160" y2="160" gradientUnits="userSpaceOnUse">
      <stop offset="0" stop-color="#4f46e5"/>
      <stop offset="1" stop-color="#7c3aed"/>
    </linearGradient>
  </defs>
  <rect x="2" y="2" width="156" height="156" rx="36" fill="url(#g)"/>
  <g stroke="#ffffff" stroke-width="5" stroke-linecap="round" fill="none">
    <!-- 天平：横梁 -->
    <line x1="46" y1="60" x2="114" y2="60"/>
    <!-- 立柱 -->
    <line x1="80" y1="50" x2="80" y2="112"/>
    <!-- 两侧吊绳 -->
    <line x1="52" y1="60" x2="52" y2="72"/>
    <line x1="108" y1="60" x2="108" y2="72"/>
    <!-- 两侧托盘 -->
    <path d="M40 72 Q52 92 64 72"/>
    <path d="M96 72 Q108 92 120 72"/>
    <!-- 底座 -->
    <line x1="64" y1="114" x2="96" y2="114"/>
  </g>
  <!-- 顶部支点 + AI 火花 -->
  <circle cx="80" cy="48" r="5.5" fill="#ffffff"/>
  <path d="M118 40 l2.4 6.6 6.6 2.4 -6.6 2.4 -2.4 6.6 -2.4 -6.6 -6.6 -2.4 6.6 -2.4 Z" fill="#ffffff" opacity="0.92"/>
</svg>
